{"title":"Maniac (1980) - DVDRip - XVID - BDK","uid":4771907,"size":734013440,"categoryP":"video","categoryS":"movies","magnet":"?xt=urn:btih:40d44005cfe111e6df538b994fd8cf7b47b83a43&amp;dn=Maniac+%281980%29+-+DVDRip+-+XVID+-+BDK&amp;tr=udp%3A%2F%2Ftracker.openbittorrent.com%3A80&amp;tr=udp%3A%2F%2Fopen.demonii.com%3A1337&amp;tr=udp%3A%2F%2Ftracker.coppersurfer.tk%3A6969&amp;tr=udp%3A%2F%2Fexodus.desync.com%3A6969","seeders":2,"leechers":1,"uploader":"akhiugo","files":-1,"time":1237069486,"description":"A schizoid serial killer randomly stalks and kills various young women in New York, which he sees as revenge for the mistreatment he got while being raised by his own abusive mother.\n\nFrank misses his mother, who was killed in a car accident years before. She was abusive to him, and made money selling her body, but Frank still misses her. He tries to keep her from leaving him, and reform her evil ways, by killing young women and putting their scalps on mannequins which he displays around his apartment. Photographer Anna takes a picture of him in the park, and he pursues and befriends her. Is she the one he's been looking for or just another mommy wanna be?\n\nGenre:\nDrama | Horror | Thriller \n\n\nIMDB Rating 6.2/10 (2,581 Votes)\n\n\nGeneral\nComplete name                    : Maniac.avi\nFormat                           : AVI\nFormat/Info                      : Audio Video Interleave\nFile size                        : 700 MiB\nDuration                         : 1h 23mn\nOverall bit rate                 : 1 174 Kbps\nWriting application              : VirtualDubMod 1.5.4.1 (build 2178/release)\nWriting library                  : VirtualDubMod build 2178/release\n\nVideo\nFormat                           : MPEG-4 Visual\nFormat profile                   : Streaming Video@L1\nFormat settings, BVOP            : Yes\nFormat settings, QPel            : No\nFormat settings, GMC             : No warppoints\nFormat settings, Matrix          : Custom\nCodec ID                         : XVID\nCodec ID/Hint                    : XviD\nDuration                         : 1h 23mn\nBit rate                         : 1 048 Kbps\nWidth                            : 720 pixels\nHeight                           : 384 pixels\nDisplay aspect ratio             : 1.875\nFrame rate                       : 25.000 fps\nResolution                       : 24 bits\nColorimetry                      : 4:2:0\nScan type                        : Progressive\nBits/(Pixel*Frame)               : 0.152\nStream size                      : 625 MiB (89%)\nWriting library                  : XviD 1.1.2 (UTC 2006-11-01)\n\nAudio\nFormat                           : MPEG Audio\nFormat version                   : Version 1\nFormat profile                   : Layer 3\nCodec ID                         : 55\nCodec ID/Hint                    : MP3\nDuration                         : 1h 23mn\nBit rate mode                    : Variable\nBit rate                         : 113 Kbps\nMinimum bit rate                 : 128 Kbps\nChannel(s)                       : 2 channels\nSampling rate                    : 48.0 KHz\nResolution                       : 16 bits\nStream size                      : 67.4 MiB (10%)\nAlignment                        : Aligned on interleaves\nInterleave, duration             : 24 ms (0.60 video frame)\nInterleave, preload duration     : 530 ms\nWriting library                  : LAME3.97b\nEncoding settings                : ABR\n\n\n\nPlease help your fellow pirates by seeding after download!","torrent":{"xt":"urn:btih:40d44005cfe111e6df538b994fd8cf7b47b83a43","amp;dn":"Maniac+%281980%29+-+DVDRip+-+XVID+-+BDK","amp;tr":["udp%3A%2F%2Ftracker.openbittorrent.com%3A80","udp%3A%2F%2Fopen.demonii.com%3A1337","udp%3A%2F%2Ftracker.coppersurfer.tk%3A6969","udp%3A%2F%2Fexodus.desync.com%3A6969"],"infoHash":"40d44005cfe111e6df538b994fd8cf7b47b83a43","infoHashBuffer":{"type":"Buffer","data":[64,212,64,5,207,225,17,230,223,83,139,153,79,216,207,123,71,184,58,67]},"announce":[],"urlList":[]}}